<svg width="40" height="40" viewBox="0 0 40 40" fill="none" xmlns="http://www.w3.org/2000/svg">
<path fill-rule="evenodd" clip-rule="evenodd" d="M15.832 10.0002C16.5494 10.0002 17.1863 10.4593 17.4132 11.1399L19.858 18.4743L27.1924 20.9191C27.873 21.146 28.332 21.7829 28.332 22.5002C28.332 23.2176 27.873 23.8545 27.1924 24.0814L19.858 26.5262L17.4132 33.8606C17.1863 34.5412 16.5494 35.0002 15.832 35.0002C15.1146 35.0002 14.4777 34.5412 14.2509 33.8606L11.8061 26.5262L4.47165 24.0814C3.79108 23.8545 3.33203 23.2176 3.33203 22.5002C3.33203 21.7829 3.79108 21.146 4.47165 20.9191L11.8061 18.4743L14.2509 11.1399C14.4777 10.4593 15.1146 10.0002 15.832 10.0002ZM15.832 16.9374L14.7048 20.319C14.5389 20.8166 14.1484 21.2072 13.6507 21.373L10.2692 22.5002L13.6507 23.6274C14.1484 23.7933 14.5389 24.1839 14.7048 24.6815L15.832 28.0631L16.9592 24.6815C17.1251 24.1839 17.5156 23.7933 18.0133 23.6274L21.3949 22.5002L18.0133 21.373C17.5156 21.2072 17.1251 20.8166 16.9592 20.319L15.832 16.9374Z" fill="url(#paint0_linear_648_3434)"/>
<path fill-rule="evenodd" clip-rule="evenodd" d="M29.1654 4.00024C29.5958 4.00024 29.9779 4.27567 30.114 4.68402L31.4143 8.58467L35.3149 9.88489C35.7233 10.021 35.9987 10.4031 35.9987 10.8336C35.9987 11.264 35.7233 11.6461 35.3149 11.7823L31.4143 13.0825L30.114 16.9831C29.9779 17.3915 29.5958 17.6669 29.1654 17.6669C28.7349 17.6669 28.3528 17.3915 28.2167 16.9831L26.9165 13.0825L23.0158 11.7823C22.6075 11.6461 22.332 11.264 22.332 10.8336C22.332 10.4031 22.6075 10.021 23.0158 9.88489L26.9165 8.58467L28.2167 4.68402C28.3528 4.27567 28.7349 4.00024 29.1654 4.00024Z" fill="url(#paint1_linear_648_3434)"/>
<defs>
<linearGradient id="paint0_linear_648_3434" x1="-2.35086" y1="-1.30679" x2="44.7444" y2="-0.040315" gradientUnits="userSpaceOnUse">
<stop offset="0.14" stop-color="#B5277C"/>
<stop offset="0.37" stop-color="#116EA8"/>
<stop offset="0.635" stop-color="#0DB5E1"/>
<stop offset="0.901265" stop-color="#8DEBD7"/>
</linearGradient>
<linearGradient id="paint1_linear_648_3434" x1="-2.35086" y1="-1.30679" x2="44.7444" y2="-0.040315" gradientUnits="userSpaceOnUse">
<stop offset="0.14" stop-color="#B5277C"/>
<stop offset="0.37" stop-color="#116EA8"/>
<stop offset="0.635" stop-color="#0DB5E1"/>
<stop offset="0.901265" stop-color="#8DEBD7"/>
</linearGradient>
</defs>
</svg>
