<svg width="22" height="22" viewBox="0 0 22 22" fill="none" xmlns="http://www.w3.org/2000/svg">
<path fill-rule="evenodd" clip-rule="evenodd" d="M8.70703 5.50013C9.10159 5.50013 9.45189 5.75261 9.57666 6.12692L10.9213 10.1609L14.9552 11.5055C15.3296 11.6303 15.582 11.9806 15.582 12.3751C15.582 12.7697 15.3296 13.12 14.9552 13.2448L10.9213 14.5894L9.57666 18.6233C9.45189 18.9977 9.10159 19.2501 8.70703 19.2501C8.31247 19.2501 7.96218 18.9977 7.8374 18.6233L6.49276 14.5894L2.45882 13.2448C2.08451 13.12 1.83203 12.7697 1.83203 12.3751C1.83203 11.9806 2.08451 11.6303 2.45882 11.5055L6.49276 10.1609L7.8374 6.12692C7.96218 5.75261 8.31247 5.50013 8.70703 5.50013ZM8.70703 9.31555L8.08707 11.1754C7.99583 11.4491 7.78104 11.6639 7.50732 11.7552L5.64745 12.3751L7.50732 12.9951C7.78104 13.0863 7.99583 13.3011 8.08707 13.5748L8.70703 15.4347L9.32699 13.5748C9.41823 13.3011 9.63302 13.0863 9.90674 12.9951L11.7666 12.3751L9.90674 11.7552C9.63302 11.6639 9.41823 11.4491 9.32699 11.1754L8.70703 9.31555Z" fill="#00AE9D"/>
<path fill-rule="evenodd" clip-rule="evenodd" d="M16.0404 2.20013C16.2771 2.20013 16.4873 2.35162 16.5621 2.57621L17.2773 4.72157L19.4226 5.43669C19.6472 5.51155 19.7987 5.72173 19.7987 5.95847C19.7987 6.1952 19.6472 6.40538 19.4226 6.48024L17.2773 7.19536L16.5621 9.34073C16.4873 9.56531 16.2771 9.7168 16.0404 9.7168C15.8036 9.7168 15.5934 9.56531 15.5186 9.34073L14.8035 7.19536L12.6581 6.48024C12.4335 6.40538 12.282 6.1952 12.282 5.95847C12.282 5.72173 12.4335 5.51155 12.6581 5.43669L14.8035 4.72157L15.5186 2.57621C15.5934 2.35162 15.8036 2.20013 16.0404 2.20013Z" fill="#00AE9D"/>
</svg>
